<?xml version="1.0" encoding="UTF-8"?> <svg xmlns="http://www.w3.org/2000/svg" width="80" height="80" viewBox="0 0 69.728 71.41"><g id="pharmacy" transform="translate(-3.68 -3.3)"><path id="Path_147" data-name="Path 147" d="M30.474,65.534V47.4a7.652,7.652,0,0,0-7.652-7.652h0A7.652,7.652,0,0,0,15.17,47.4V65.534Z" transform="translate(2.353 8.176)" fill="#01d28e"></path><rect id="Rectangle_147" data-name="Rectangle 147" width="20.825" height="20.825" rx="8.5" transform="translate(27.942 3.3)" fill="#01d28e"></rect><line id="Line_120" data-name="Line 120" y1="12.99" transform="translate(38.348 7.218)" fill="none" stroke="#fff" stroke-miterlimit="10" stroke-width="2"></line><line id="Line_121" data-name="Line 121" x1="13.137" transform="translate(31.786 13.707)" fill="none" stroke="#fff" stroke-miterlimit="10" stroke-width="2"></line><path id="Path_148" data-name="Path 148" d="M49.23,30.43c0,3.379-3.783,6.122-8.46,6.122s-8.46-2.73-8.46-6.122" transform="translate(6.197 6.085)" fill="none" stroke="#fff" stroke-linecap="round" stroke-linejoin="round" stroke-width="2"></path><path id="Path_149" data-name="Path 149" d="M46.12,26.68v4.591c0,3.379,3.8,6.122,8.46,6.122A11.558,11.558,0,0,0,57.9,36.9c3.024-.93,5.142-3.1,5.142-5.62l.073-4.6Z" transform="translate(9.295 5.244)" fill="none" stroke="#fff" stroke-linecap="round" stroke-linejoin="round" stroke-width="2"></path><path id="Path_150" data-name="Path 150" d="M35.493,26.68l-.086,4.591c0,3.379-3.783,6.122-8.46,6.122S18.5,34.662,18.5,31.271" transform="translate(3.1 5.244)" fill="none" stroke="#fff" stroke-linecap="round" stroke-linejoin="round" stroke-width="2"></path><path id="Path_151" data-name="Path 151" d="M4.68,31.271c0,2.571,2.191,4.75,5.289,5.656a11.092,11.092,0,0,0,3.171.453c4.677,0,8.46-2.73,8.46-6.122V26.68H4.778Z" transform="translate(0 5.244)" fill="none" stroke="#fff" stroke-linecap="round" stroke-linejoin="round" stroke-width="2"></path><path id="Path_152" data-name="Path 152" d="M9,26.68H66.224" transform="translate(0.969 5.244)" fill="none" stroke="#000" stroke-linecap="round" stroke-linejoin="round" stroke-width="2"></path><path id="Path_153" data-name="Path 153" d="M66.224,35.02V66.595H9V35.057" transform="translate(0.969 7.115)" fill="none" stroke="#fff" stroke-linecap="round" stroke-linejoin="round" stroke-width="2"></path><path id="Path_154" data-name="Path 154" d="M25.353,11.8H15.485a4.9,4.9,0,0,0-4.31,3.171L4.76,30.018H72.39L65.877,14.946A4.9,4.9,0,0,0,61.555,11.8H51.479" transform="translate(0.018 1.907)" fill="none" stroke="#fff" stroke-linecap="round" stroke-linejoin="round" stroke-width="2"></path><path id="Path_155" data-name="Path 155" d="M21.58,11.8a13.063,13.063,0,1,0,26.127,0" transform="translate(3.791 1.907)" fill="none" stroke="#fff" stroke-linecap="round" stroke-linejoin="round" stroke-width="2"></path><rect id="Rectangle_148" data-name="Rectangle 148" width="21.976" height="20.079" transform="translate(39.805 47.914)" stroke-width="2" stroke="#fff" stroke-linecap="round" stroke-linejoin="round" fill="none"></rect><line id="Line_122" data-name="Line 122" x2="21.976" transform="translate(39.805 57.953)" fill="none" stroke="#fff" stroke-linecap="round" stroke-linejoin="round" stroke-width="2"></line><line id="Line_123" data-name="Line 123" y2="10.003" transform="translate(50.787 47.914)" fill="none" stroke="#fff" stroke-linecap="round" stroke-linejoin="round" stroke-width="2"></line><path id="Path_156" data-name="Path 156" d="M30.474,65.534V47.4a7.652,7.652,0,0,0-7.652-7.652h0A7.652,7.652,0,0,0,15.17,47.4V65.534Z" transform="translate(2.353 8.176)" fill="none" stroke="#fff" stroke-linecap="round" stroke-linejoin="round" stroke-width="2"></path><line id="Line_124" data-name="Line 124" x1="2.387" transform="translate(21.612 61.001)" fill="none" stroke="#fff" stroke-linecap="round" stroke-linejoin="round" stroke-width="2"></line></g></svg> 