<?xml version="1.0" encoding="UTF-8"?> <svg xmlns="http://www.w3.org/2000/svg" width="90" height="90" viewBox="0 0 51.44 54.005"><g id="emergency_call_1" transform="translate(-3.673 -2.69)"><path id="Path_63" data-name="Path 63" d="M44.1,28.827a13.073,13.073,0,0,0,0-26.137,8.631,8.631,0,0,0-1.3.065,13.055,13.055,0,0,0-10,19.559L27.92,28.8H44.1" transform="translate(-1.709)" fill="#01d28e"></path><path id="Path_64" data-name="Path 64" d="M24.849,49.668l-.25-.278c-2.78-3.039-5.281-6.226-7.783-9.5C12.924,34.8,9.005,29.7,6.124,23.92c-1.242-2.474-2.251-5.559-.612-8.255,1.853-3.095,5.763-5.429,9.126-6.486a6.124,6.124,0,0,1,3.058.612A21.533,21.533,0,0,1,20.939,13.5c.991,1.464,1.853,3.363,1.01,5.031C20.8,20.881,16.973,21.6,16.7,24.152a4.447,4.447,0,0,0,1.251,3.058q5.559,7.579,11.406,14.963a4.179,4.179,0,0,0,1.492,1.353c1.26.565,2.854-.232,4-1.158s2.353-2.057,3.817-2.224c1.658-.185,3.085.927,4.151,2.112A18.688,18.688,0,0,1,45.8,46.75,2.705,2.705,0,0,1,46.14,48.6,3.122,3.122,0,0,1,45.3,49.78c-3.132,3.261-7.56,7.412-12.471,6.2C29.25,55.153,27.147,52.263,24.849,49.668Z" transform="translate(0 -0.476)" fill="none" stroke="#fff" stroke-linecap="round" stroke-linejoin="round" stroke-width="2"></path><circle id="Ellipse_40" data-name="Ellipse 40" cx="1.52" cy="1.52" r="1.52" transform="translate(36.356 14.346)" fill="#fff"></circle><circle id="Ellipse_41" data-name="Ellipse 41" cx="1.52" cy="1.52" r="1.52" transform="translate(41.313 14.346)" fill="#fff"></circle><circle id="Ellipse_42" data-name="Ellipse 42" cx="1.52" cy="1.52" r="1.52" transform="translate(46.446 14.346)" fill="#fff"></circle></g></svg> 