<?xml version="1.0" encoding="UTF-8"?> <svg xmlns="http://www.w3.org/2000/svg" width="46.761" height="53.084" viewBox="0 0 46.761 53.084"><g id="hospital_location" data-name="hospital location" transform="translate(-6.27 -1.29)"><path id="Path_98" data-name="Path 98" d="M12.972,28.71H46.212l5.819,26.779H7.27Z" transform="translate(0 -2.51)" fill="none"></path><line id="Line_77" data-name="Line 77" x2="20.878" y2="26.77" transform="translate(20.945 26.2)" fill="none" stroke="#fff" stroke-linecap="round" stroke-linejoin="round" stroke-width="2"></line><line id="Line_78" data-name="Line 78" x1="39.168" y2="18.263" transform="translate(8.075 30.933)" fill="none" stroke="#fff" stroke-linecap="round" stroke-linejoin="round" stroke-width="2"></line><line id="Line_79" data-name="Line 79" x1="39.322" y2="18.326" transform="translate(8.727 34.644)" fill="none" stroke="#fff" stroke-linecap="round" stroke-linejoin="round" stroke-width="2"></line><path id="Path_99" data-name="Path 99" d="M12.972,28.71H46.212l5.819,26.779H7.27Z" transform="translate(0 -2.51)" fill="none" stroke="#fff" stroke-linecap="round" stroke-linejoin="round" stroke-width="2"></path><path id="Path_100" data-name="Path 100" d="M24.31,13.213c0,6.19,9.665,14.38,10.923,19.639C36.7,27.521,46.157,19.4,46.157,13.213a10.923,10.923,0,1,0-21.847,0Z" transform="translate(-1.619)" fill="none"></path><path id="Path_101" data-name="Path 101" d="M24.31,13.213c0,6.19,9.665,14.38,10.923,19.639C36.7,27.521,46.157,19.4,46.157,13.213a10.923,10.923,0,1,0-21.847,0Z" transform="translate(-1.619)" fill="#01d28e" stroke="#fff" stroke-linecap="round" stroke-linejoin="round" stroke-width="2"></path><line id="Line_80" data-name="Line 80" y1="8.715" transform="translate(33.615 8.779)" fill="none" stroke="#fff" stroke-miterlimit="10" stroke-width="2"></line><line id="Line_81" data-name="Line 81" x1="8.815" transform="translate(29.207 13.132)" fill="none" stroke="#fff" stroke-miterlimit="10" stroke-width="2"></line><path id="Path_102" data-name="Path 102" d="M35.6,20.25h0a7.367,7.367,0,0,1-7.466-7.24h0A7.367,7.367,0,0,1,35.6,5.77h0a7.358,7.358,0,0,1,7.466,7.24h0A7.358,7.358,0,0,1,35.6,20.25Z" transform="translate(-1.982 -0.331)" fill="#01d28e"></path><line id="Line_82" data-name="Line 82" y1="7.512" transform="translate(33.615 8.96)" fill="#fff" stroke="#fff" stroke-miterlimit="10" stroke-width="2"></line><line id="Line_83" data-name="Line 83" x1="7.593" transform="translate(29.823 12.716)" fill="#fff" stroke="#fff" stroke-miterlimit="10" stroke-width="2"></line></g></svg> 