<?xml version="1.0" encoding="UTF-8"?> <svg xmlns="http://www.w3.org/2000/svg" xmlns:xlink="http://www.w3.org/1999/xlink" width="281.86" height="228.804" viewBox="0 0 281.86 228.804"><defs><linearGradient id="linear-gradient" x1="0.5" x2="0.5" y2="1" gradientUnits="objectBoundingBox"><stop offset="0" stop-color="#4facfe"></stop><stop offset="1" stop-color="#38f9a5"></stop></linearGradient></defs><path id="Path_3" data-name="Path 3" d="M101.138-588.59q28.186,0,45.595,20.725t17.409,60.517q0,77.926-54.714,136.785-9.948,10.777-23.212,10.777-11.606,0-21.14-8.7T55.543-388.8q0-9.948,8.29-19.067Q88.7-434.4,96.164-467.556q-24.041-2.487-39.377-18.653T41.45-526.415q0-26.528,16.994-44.352T101.138-588.59Zm159.168,0q28.186,0,45.6,20.725t17.409,60.517q0,77.926-54.714,136.785-9.948,10.777-23.212,10.777-11.606,0-21.139-8.7t-9.534-20.31q0-9.948,8.29-19.067,24.87-26.528,32.331-59.688-24.041-2.487-39.378-18.653t-15.337-40.207q0-26.528,16.995-44.352T260.306-588.59Z" transform="translate(-41.45 588.59)" opacity="0.08" fill="url(#linear-gradient)"></path></svg> 