<svg xmlns="http://www.w3.org/2000/svg" xmlns:xlink="http://www.w3.org/1999/xlink" width="32.64" height="26.496" viewBox="0 0 32.64 26.496"><defs><linearGradient id="linear-gradient" x1="0.5" x2="0.5" y2="1" gradientUnits="objectBoundingBox"><stop offset="0" stop-color="#4facfe"></stop><stop offset="1" stop-color="#38f9a5"></stop></linearGradient></defs><path id="Path_2" data-name="Path 2" d="M12.672-55.776a7.062,7.062,0,0,1,4.56,2.16,6.5,6.5,0,0,1,1.776,4.656,7.152,7.152,0,0,1-1.968,5.136,6.434,6.434,0,0,1-4.848,2.064,6.7,6.7,0,0,1-5.328-2.4Q4.8-46.56,4.8-51.168a22.547,22.547,0,0,1,6.336-15.84,3.554,3.554,0,0,1,2.688-1.248,3.549,3.549,0,0,1,2.448,1.008,3.1,3.1,0,0,1,1.1,2.352,3.259,3.259,0,0,1-.96,2.208A14.711,14.711,0,0,0,12.672-55.776Zm18.432,0a7.062,7.062,0,0,1,4.56,2.16A6.5,6.5,0,0,1,37.44-48.96a7.152,7.152,0,0,1-1.968,5.136,6.434,6.434,0,0,1-4.848,2.064,6.7,6.7,0,0,1-5.328-2.4q-2.064-2.4-2.064-7.008a22.547,22.547,0,0,1,6.336-15.84,3.554,3.554,0,0,1,2.688-1.248A3.549,3.549,0,0,1,34.7-67.248a3.1,3.1,0,0,1,1.1,2.352,3.259,3.259,0,0,1-.96,2.208A14.711,14.711,0,0,0,31.1-55.776Z" transform="translate(-4.8 68.256)" fill="url(#linear-gradient)"></path></svg>