<?xml version="1.0" encoding="UTF-8"?> <svg xmlns="http://www.w3.org/2000/svg" width="80" height="80" viewBox="0 0 63.899 69.959"><g id="nurse_1" transform="translate(-5.12 -3.08)"><path id="Path_133" data-name="Path 133" d="M6.12,65.6V54.7A17.539,17.539,0,0,1,23.647,37.16h6.192L36.831,49,43.99,37.16h6.443A17.539,17.539,0,0,1,68.019,54.7V65.6Z" transform="translate(0 6.388)" fill="none"></path><path id="Path_134" data-name="Path 134" d="M6.12,65.6V54.7A17.539,17.539,0,0,1,23.647,37.16h6.192L36.831,49,43.99,37.16h6.443A17.539,17.539,0,0,1,68.019,54.7V65.6Z" transform="translate(0 6.388)" fill="none" stroke="#fff" stroke-linecap="round" stroke-linejoin="round" stroke-width="2"></path><line id="Line_114" data-name="Line 114" y2="7.087" transform="translate(20.223 64.953)" fill="none" stroke="#fff" stroke-linecap="round" stroke-linejoin="round" stroke-width="2"></line><line id="Line_115" data-name="Line 115" y2="7.087" transform="translate(56.135 64.953)" fill="none" stroke="#fff" stroke-linecap="round" stroke-linejoin="round" stroke-width="2"></line><path id="Path_135" data-name="Path 135" d="M34.4,38.646C27.421,38.646,20,24.52,20,16.12" transform="translate(2.68 2.325)" fill="none" stroke="#fff" stroke-linecap="round" stroke-linejoin="round" stroke-width="2"></path><path id="Path_136" data-name="Path 136" d="M46.4,16.12c0,8.352-7.35,22.538-14.317,22.538" transform="translate(5.013 2.325)" fill="none" stroke="#fff" stroke-linecap="round" stroke-linejoin="round" stroke-width="2"></path><path id="Path_137" data-name="Path 137" d="M34.317,4.08A14.317,14.317,0,0,0,20,18.4H48.73A14.317,14.317,0,0,0,34.413,4.08" transform="translate(2.68 0)" fill="#01d28e" stroke="#fff" stroke-linecap="round" stroke-linejoin="round" stroke-width="2"></path></g></svg> 