<?xml version="1.0" encoding="UTF-8"?> <svg xmlns="http://www.w3.org/2000/svg" width="579" height="579" viewBox="0 0 579 579"><path id="Subtraction_7" data-name="Subtraction 7" d="M289.5,579a294.175,294.175,0,0,1-29.6-1.495,290.243,290.243,0,0,1-28.745-4.387c-9.328-1.909-18.662-4.309-27.744-7.134-8.981-2.793-17.93-6.069-26.6-9.735-8.588-3.633-17.1-7.734-25.306-12.191-8.146-4.425-16.177-9.3-23.869-14.5a291.1,291.1,0,0,1-78.2-78.2c-5.2-7.692-10.076-15.723-14.5-23.869-4.457-8.2-8.558-16.718-12.191-25.307-3.666-8.668-6.942-17.617-9.735-26.6-2.825-9.083-5.225-18.417-7.134-27.744A290.242,290.242,0,0,1,1.495,319.1a293.847,293.847,0,0,1,0-59.2,290.248,290.248,0,0,1,4.387-28.745c1.909-9.327,4.309-18.661,7.134-27.744,2.793-8.981,6.069-17.93,9.735-26.6,3.633-8.589,7.734-17.1,12.191-25.306,4.425-8.146,9.3-16.177,14.5-23.869a291.093,291.093,0,0,1,78.2-78.2c7.693-5.2,15.723-10.076,23.869-14.5,8.2-4.456,16.718-8.558,25.306-12.191,8.668-3.666,17.617-6.942,26.6-9.735,9.083-2.825,18.417-5.225,27.744-7.134A290.248,290.248,0,0,1,259.9,1.495a293.847,293.847,0,0,1,59.2,0,290.242,290.242,0,0,1,28.745,4.387c9.327,1.909,18.661,4.309,27.744,7.134,8.981,2.793,17.93,6.069,26.6,9.735,8.588,3.632,17.1,7.734,25.307,12.191,8.146,4.425,16.177,9.3,23.869,14.5a291.1,291.1,0,0,1,78.2,78.2c5.2,7.693,10.076,15.723,14.5,23.869,4.457,8.2,8.558,16.718,12.191,25.306,3.666,8.668,6.942,17.617,9.735,26.6,2.825,9.082,5.225,18.416,7.134,27.744a290.243,290.243,0,0,1,4.387,28.745,293.845,293.845,0,0,1,0,59.2,290.241,290.241,0,0,1-4.387,28.745c-1.909,9.328-4.309,18.662-7.134,27.744-2.793,8.981-6.069,17.93-9.735,26.6-3.632,8.588-7.734,17.1-12.191,25.307-4.425,8.146-9.3,16.177-14.5,23.869a291.1,291.1,0,0,1-78.2,78.2c-7.692,5.2-15.723,10.076-23.869,14.5-8.2,4.457-16.719,8.558-25.307,12.191-8.668,3.666-17.617,6.942-26.6,9.735-9.082,2.825-18.416,5.225-27.744,7.134a290.241,290.241,0,0,1-28.745,4.387A294.17,294.17,0,0,1,289.5,579Zm0-496.286c-114.022,0-206.785,92.763-206.785,206.785S175.478,496.286,289.5,496.286,496.286,403.522,496.286,289.5,403.522,82.715,289.5,82.715Z" transform="translate(0)" fill="#fff" opacity="0.04"></path></svg> 