<?xml version="1.0" encoding="UTF-8"?> <svg xmlns="http://www.w3.org/2000/svg" width="1036" height="688.09" viewBox="0 0 1036 688.09"><path id="Subtraction_10" data-name="Subtraction 10" d="M145.656,688.09c-23.765,0-43.543-2.507-60.465-7.666a118.249,118.249,0,0,1-24.9-10.7,100.993,100.993,0,0,1-11-7.388,98.21,98.21,0,0,1-9.984-8.87,102.022,102.022,0,0,1-8.936-10.446,113.051,113.051,0,0,1-7.855-12.115A146.032,146.032,0,0,1,10.19,601.3a228.867,228.867,0,0,1-7.6-37.389A377.042,377.042,0,0,1,0,518a526.335,526.335,0,0,1,2.674-52.963,519.371,519.371,0,0,1,7.85-51.433c3.415-16.687,7.709-33.389,12.764-49.642,5-16.07,10.859-32.082,17.419-47.592,6.5-15.367,13.838-30.6,21.813-45.281,7.918-14.575,16.647-28.945,25.946-42.709,9.254-13.7,19.287-27.115,29.82-39.877,10.508-12.733,21.756-25.109,33.433-36.785s24.053-22.925,36.785-33.433c12.763-10.533,26.179-20.566,39.877-29.82,13.764-9.3,28.134-18.029,42.709-25.946,14.68-7.975,29.915-15.314,45.281-21.813,15.51-6.56,31.522-12.421,47.592-17.419,16.253-5.055,32.955-9.35,49.642-12.764a519.341,519.341,0,0,1,51.432-7.849,525.765,525.765,0,0,1,105.925,0A519.321,519.321,0,0,1,622.4,10.524c16.688,3.415,33.389,7.709,49.642,12.764,16.071,5,32.083,10.859,47.592,17.419,15.366,6.5,30.6,13.838,45.281,21.813,14.576,7.918,28.945,16.648,42.709,25.946,13.7,9.254,27.115,19.287,39.878,29.82,12.732,10.507,25.108,21.756,36.785,33.433s22.925,24.053,33.433,36.785c10.534,12.764,20.566,26.18,29.82,39.877,9.3,13.765,18.029,28.134,25.946,42.709,7.974,14.68,15.313,29.915,21.813,45.281,6.56,15.51,12.421,31.522,17.419,47.592,5.055,16.253,9.35,32.955,12.764,49.642a519.315,519.315,0,0,1,7.85,51.433A526.335,526.335,0,0,1,1036,518a455.475,455.475,0,0,1-2.137,45.91,268.168,268.168,0,0,1-6.306,37.387,160.9,160.9,0,0,1-10.313,29.6,106.245,106.245,0,0,1-14.159,22.561,86.465,86.465,0,0,1-17.845,16.259,93.267,93.267,0,0,1-21.37,10.7c-14.591,5.161-31.82,7.67-52.672,7.671-9.86,0-20.466-.549-32.423-1.681a143.138,143.138,0,0,0,16.615-11.579,132.783,132.783,0,0,0,14.7-13.888,134.336,134.336,0,0,0,12.689-16.4,148.234,148.234,0,0,0,10.589-19.1,176.453,176.453,0,0,0,8.4-22.007,222.168,222.168,0,0,0,6.111-25.111c1.649-8.926,2.905-18.485,3.734-28.412.839-10.056,1.265-20.793,1.265-31.912C952.87,278.212,757.788,83.13,518,83.13S83.13,278.212,83.13,518c0,11.306.44,22.215,1.308,32.424A288.1,288.1,0,0,0,88.3,579.232a219.891,219.891,0,0,0,6.314,25.4,174.35,174.35,0,0,0,8.672,22.2c12.595,26.516,31.021,46.465,56.332,60.986C154.812,688,150.116,688.09,145.656,688.09Z" fill="#4facfe" opacity="0.08"></path></svg> 