<?xml version="1.0" encoding="UTF-8"?> <svg xmlns="http://www.w3.org/2000/svg" width="601" height="601" viewBox="0 0 601 601"><g id="Subtraction_8" data-name="Subtraction 8" transform="translate(0)" fill="none" opacity="0.24"><path d="M300.5,601a305.341,305.341,0,0,1-30.724-1.551,301.3,301.3,0,0,1-29.837-4.554c-9.682-1.981-19.371-4.473-28.8-7.4-9.322-2.9-18.611-6.3-27.609-10.1-8.915-3.771-17.753-8.028-26.268-12.654-8.455-4.593-16.791-9.657-24.776-15.052a302.156,302.156,0,0,1-81.167-81.167c-5.394-7.985-10.459-16.321-15.052-24.776-4.626-8.516-8.883-17.353-12.654-26.268-3.806-9-7.205-18.286-10.1-27.609-2.932-9.428-5.424-19.117-7.4-28.8a301.267,301.267,0,0,1-4.554-29.837,305.012,305.012,0,0,1,0-61.449,301.278,301.278,0,0,1,4.554-29.837c1.981-9.681,4.472-19.37,7.4-28.8,2.9-9.322,6.3-18.611,10.1-27.609,3.771-8.915,8.028-17.753,12.654-26.268,4.593-8.455,9.657-16.791,15.052-24.776a302.154,302.154,0,0,1,81.167-81.167c7.985-5.394,16.321-10.459,24.776-15.052,8.515-4.626,17.353-8.883,26.268-12.654,9-3.806,18.286-7.205,27.609-10.1,9.428-2.932,19.117-5.424,28.8-7.4a301.278,301.278,0,0,1,29.837-4.554,305.012,305.012,0,0,1,61.449,0,301.267,301.267,0,0,1,29.837,4.554c9.681,1.981,19.37,4.472,28.8,7.4,9.322,2.9,18.611,6.3,27.609,10.1,8.915,3.771,17.752,8.028,26.268,12.654,8.456,4.593,16.792,9.658,24.776,15.052a302.156,302.156,0,0,1,81.167,81.167c5.394,7.985,10.459,16.321,15.052,24.776,4.626,8.515,8.883,17.353,12.654,26.268,3.806,9,7.206,18.286,10.1,27.609,2.932,9.427,5.423,19.116,7.4,28.8a301.3,301.3,0,0,1,4.554,29.837,305.015,305.015,0,0,1,0,61.449,301.29,301.29,0,0,1-4.554,29.837c-1.981,9.682-4.473,19.371-7.4,28.8-2.9,9.322-6.3,18.611-10.1,27.609-3.77,8.914-8.028,17.752-12.654,26.268-4.593,8.456-9.658,16.792-15.052,24.776a302.158,302.158,0,0,1-81.167,81.167c-7.985,5.394-16.321,10.459-24.776,15.052-8.516,4.626-17.354,8.883-26.268,12.654-9,3.806-18.286,7.205-27.609,10.1-9.427,2.932-19.116,5.424-28.8,7.4a301.29,301.29,0,0,1-29.837,4.554A305.336,305.336,0,0,1,300.5,601Zm0-547.646C164.223,53.354,53.354,164.223,53.354,300.5S164.223,547.646,300.5,547.646,547.646,436.777,547.646,300.5,436.777,53.354,300.5,53.354Z" stroke="none"></path><path d="M 300.4998779296875 600.000244140625 C 310.7161865234375 600.000244140625 321.0193481445313 599.4800415039063 331.1231689453125 598.4540405273438 C 341.0798034667969 597.4428100585938 351.0850219726563 595.9158935546875 360.8608093261719 593.9154663085938 C 370.5100402832031 591.9407958984375 380.1667175292969 589.4578247070313 389.5625 586.5354614257813 C 398.8531188964844 583.6458129882813 408.1108703613281 580.2573852539063 417.0786437988281 576.4644165039063 C 425.9631958007813 572.7066650390625 434.771484375 568.4635009765625 443.2589416503906 563.852783203125 C 451.685791015625 559.2750244140625 459.9939575195313 554.2277221679688 467.95263671875 548.8509521484375 C 483.8117980957031 538.13671875 498.7251892089844 525.83203125 512.2787475585938 512.2787475585938 C 525.83203125 498.7251892089844 538.13671875 483.8117980957031 548.8509521484375 467.9527282714844 C 554.2277221679688 459.9939575195313 559.2750244140625 451.685791015625 563.852783203125 443.2588806152344 C 568.4635009765625 434.771484375 572.7066650390625 425.9631958007813 576.4644165039063 417.0786437988281 C 580.2573852539063 408.1108703613281 583.6458129882813 398.8531188964844 586.5354614257813 389.5625 C 589.4578247070313 380.1667175292969 591.9407958984375 370.5100402832031 593.9154663085938 360.8608093261719 C 595.9158935546875 351.0850219726563 597.4428100585938 341.0798034667969 598.4540405273438 331.1231689453125 C 599.4800415039063 321.0193481445313 600.000244140625 310.7161865234375 600.000244140625 300.4998779296875 C 600.000244140625 290.2835693359375 599.4800415039063 279.9804077148438 598.4540405273438 269.8764953613281 C 597.442626953125 259.9188842773438 595.9157104492188 249.9137268066406 593.9154663085938 240.1390228271484 C 591.9407958984375 230.4894866943359 589.4578247070313 220.8328704833984 586.5354614257813 211.4374847412109 C 583.6458740234375 202.1470336914063 580.2575073242188 192.8891906738281 576.4644165039063 183.9212646484375 C 572.7063598632813 175.0364074707031 568.4631958007813 166.2281036376953 563.852783203125 157.7411041259766 C 559.2749633789063 149.3140258789063 554.2275390625 141.0058746337891 548.8509521484375 133.0474090576172 C 538.1369018554688 117.1884918212891 525.8321533203125 102.2751083374023 512.2787475585938 88.72148895263672 C 498.7248840332031 75.16795349121094 483.8114929199219 62.86333847045898 467.9527282714844 52.1494140625 C 459.9939575195313 46.77264404296875 451.685791015625 41.72533798217773 443.2588806152344 37.14756774902344 C 434.7712707519531 32.53680038452148 425.9629516601563 28.29364395141602 417.0786437988281 24.53587532043457 C 408.111572265625 20.74318313598633 398.8537902832031 17.35479927062988 389.5625 14.46479892730713 C 380.1666564941406 11.54249095916748 370.5099487304688 9.059491157531738 360.8608093261719 7.084875583648682 C 351.0848083496094 5.084490776062012 341.0795593261719 3.557490825653076 331.1231689453125 2.546413898468018 C 321.0196533203125 1.520336985588074 310.7164001464844 1.00010621547699 300.4998779296875 1.00010621547699 C 290.2833251953125 1.00010621547699 279.9801025390625 1.520336985588074 269.8764038085938 2.546413898468018 C 259.9190979003906 3.557644605636597 249.9140319824219 5.084644794464111 240.1390228271484 7.084875583648682 C 230.4897918701172 9.059491157531738 220.8331756591797 11.54241371154785 211.4374847412109 14.46479892730713 C 202.1470336914063 17.35449028015137 192.8891906738281 20.74287605285645 183.9212646484375 24.53587532043457 C 175.0363311767578 28.29395294189453 166.22802734375 32.53718185424805 157.7411804199219 37.14756774902344 C 149.3134918212891 41.72587585449219 141.0053405761719 46.7731819152832 133.0474090576172 52.1494140625 C 117.188102722168 62.86380004882813 102.2747192382813 75.16841125488281 88.72148895263672 88.72148895263672 C 75.16841125488281 102.2747192382813 62.86380004882813 117.188102722168 52.1494140625 133.0474090576172 C 46.7731819152832 141.0053405761719 41.72587585449219 149.3134918212891 37.14756774902344 157.7411804199219 C 32.53718185424805 166.22802734375 28.29395294189453 175.0363311767578 24.53587532043457 183.9212646484375 C 20.74287605285645 192.8891906738281 17.35449028015137 202.1470336914063 14.46479892730713 211.4374847412109 C 11.54241371154785 220.8331756591797 9.059491157531738 230.4897918701172 7.084875583648682 240.1390228271484 C 5.084644794464111 249.9140319824219 3.557644605636597 259.9190979003906 2.546413898468018 269.8764038085938 C 1.520336985588074 279.9801025390625 1.00010621547699 290.2833251953125 1.00010621547699 300.4998779296875 C 1.00010621547699 310.7164001464844 1.520336985588074 321.0196533203125 2.546413898468018 331.1231689453125 C 3.557490825653076 341.0795593261719 5.084490776062012 351.0848083496094 7.084875583648682 360.8608093261719 C 9.059491157531738 370.5099487304688 11.54249095916748 380.1666564941406 14.46479892730713 389.5625 C 17.35479927062988 398.8537902832031 20.74318313598633 408.111572265625 24.53587532043457 417.0786437988281 C 28.29364395141602 425.9629516601563 32.53680038452148 434.7712707519531 37.14756774902344 443.2589416503906 C 41.72533798217773 451.685791015625 46.77264404296875 459.9939575195313 52.1494140625 467.9527282714844 C 62.86333847045898 483.8114929199219 75.16795349121094 498.7248840332031 88.72148895263672 512.2787475585938 C 102.2751083374023 525.8321533203125 117.1884918212891 538.1369018554688 133.0474090576172 548.8509521484375 C 141.0058746337891 554.2275390625 149.3140258789063 559.2749633789063 157.7411804199219 563.852783203125 C 166.2281036376953 568.4631958007813 175.0364074707031 572.7063598632813 183.9212646484375 576.4644165039063 C 192.8891906738281 580.2575073242188 202.1470336914063 583.6458740234375 211.4374847412109 586.5354614257813 C 220.8328704833984 589.4578247070313 230.4894866943359 591.9407958984375 240.1390228271484 593.9154663085938 C 249.9137268066406 595.9157104492188 259.9188842773438 597.442626953125 269.8764038085938 598.4540405273438 C 279.9804077148438 599.4800415039063 290.2835693359375 600.000244140625 300.4998779296875 600.000244140625 M 300.4998779296875 52.35433578491211 C 437.3280334472656 52.35433578491211 548.6458740234375 163.6719512939453 548.6458740234375 300.4998779296875 C 548.6458740234375 437.3280334472656 437.3280334472656 548.6458740234375 300.4998779296875 548.6458740234375 C 163.6719512939453 548.6458740234375 52.35433578491211 437.3280334472656 52.35433578491211 300.4998779296875 C 52.35433578491211 163.6719512939453 163.6719512939453 52.35433578491211 300.4998779296875 52.35433578491211 M 300.4998779296875 601.000244140625 C 290.2496337890625 601.000244140625 279.9124145507813 600.478271484375 269.7754211425781 599.4488525390625 C 259.7854919433594 598.4342651367188 249.7468719482422 596.9022827148438 239.9385681152344 594.8952026367188 C 230.2562561035156 592.913818359375 220.5671844482422 590.4224243164063 211.1404876708984 587.4903564453125 C 201.8181762695313 584.5908813476563 192.5292663574219 581.1910400390625 183.5317230224609 577.3854370117188 C 174.6169586181641 573.61474609375 165.7791900634766 569.3573608398438 157.2637939453125 564.7315063476563 C 148.8084106445313 560.1382446289063 140.4724884033203 555.0740356445313 132.4876403808594 549.6795654296875 C 116.5757217407227 538.9297485351563 101.6127243041992 526.5840454101563 88.01441192626953 512.9857788085938 C 74.41587829589844 499.3870239257813 62.07033538818359 484.4240417480469 51.32079696655273 468.5124816894531 C 45.92649078369141 460.5278015136719 40.86225891113281 452.1919555664063 36.26887512207031 443.7362670898438 C 31.64287567138672 435.2205810546875 27.38541412353516 426.3827209472656 23.61487579345703 417.4681701660156 C 19.8093376159668 408.4707336425781 16.40956687927246 399.1817932128906 13.50995254516602 389.8594970703125 C 10.57764434814453 380.431640625 8.086337089538574 370.7424011230469 6.105183124542236 361.0612487792969 C 4.098106384277344 351.2527160644531 2.56602931022644 341.214111328125 1.551567673683167 331.2241821289063 C 0.5221061706542969 321.0873413085938 0.0001061823932104744 310.7500915527344 0.0001061823932104744 300.4998779296875 C 0.0001061823932104744 290.2496337890625 0.5221061706542969 279.9124145507813 1.551567673683167 269.7754211425781 C 2.566106081008911 259.7854919433594 4.098106384277344 249.7468719482422 6.105183124542236 239.9385681152344 C 8.086337089538574 230.2572631835938 10.57764434814453 220.5680999755859 13.50995254516602 211.1404876708984 C 16.40949058532715 201.8181762695313 19.8093376159668 192.5292663574219 23.61487579345703 183.5317230224609 C 27.38564491271973 174.6168060302734 31.64310646057129 165.7789459228516 36.26887512207031 157.2637939453125 C 40.8621826171875 148.8084106445313 45.92633819580078 140.4724884033203 51.32079696655273 132.4876403808594 C 62.0705680847168 116.5758743286133 74.41603088378906 101.6128768920898 88.01441192626953 88.01441192626953 C 101.6128768920898 74.41603088378906 116.5758743286133 62.0705680847168 132.4876403808594 51.32079696655273 C 140.4724884033203 45.92633819580078 148.8084106445313 40.8621826171875 157.2637939453125 36.26887512207031 C 165.7789459228516 31.64310646057129 174.6168060302734 27.38564491271973 183.5317230224609 23.61487579345703 C 192.5292663574219 19.8093376159668 201.8181762695313 16.40949058532715 211.1404876708984 13.50995254516602 C 220.5680999755859 10.57764434814453 230.2572631835938 8.086337089538574 239.9385681152344 6.105183124542236 C 249.7468719482422 4.098106384277344 259.7854919433594 2.566106081008911 269.7754211425781 1.551567673683167 C 279.9124145507813 0.5221061706542969 290.2496337890625 0.0001061823932104744 300.4998779296875 0.0001061823932104744 C 310.7500915527344 0.0001061823932104744 321.0873413085938 0.5221061706542969 331.2241821289063 1.551567673683167 C 341.214111328125 2.56602931022644 351.2527160644531 4.098106384277344 361.0612487792969 6.105183124542236 C 370.7424011230469 8.086337089538574 380.431640625 10.57764434814453 389.8594970703125 13.50995254516602 C 399.1817932128906 16.40956687927246 408.4707336425781 19.8093376159668 417.4681701660156 23.61487579345703 C 426.3827209472656 27.38541412353516 435.2205810546875 31.64287567138672 443.7362670898438 36.26887512207031 C 452.1919555664063 40.86225891113281 460.5278015136719 45.92649078369141 468.5124816894531 51.32079696655273 C 484.4240417480469 62.07033538818359 499.3870239257813 74.41587829589844 512.9857788085938 88.01441192626953 C 526.5840454101563 101.6127243041992 538.9297485351563 116.5757217407227 549.6795654296875 132.4876403808594 C 555.0740356445313 140.4724884033203 560.1382446289063 148.8084106445313 564.7315063476563 157.2637939453125 C 569.3573608398438 165.7791900634766 573.61474609375 174.6169586181641 577.3854370117188 183.5317230224609 C 581.1910400390625 192.5292663574219 584.5908813476563 201.8181762695313 587.4903564453125 211.1404876708984 C 590.4224243164063 220.5671844482422 592.913818359375 230.2562561035156 594.8952026367188 239.9385681152344 C 596.9022827148438 249.7468719482422 598.4342651367188 259.7854919433594 599.4488525390625 269.7754211425781 C 600.478271484375 279.9124145507813 601.000244140625 290.2496337890625 601.000244140625 300.4998779296875 C 601.000244140625 310.7500915527344 600.478271484375 321.0873413085938 599.4488525390625 331.2241821289063 C 598.434326171875 341.214111328125 596.9022827148438 351.2527160644531 594.8952026367188 361.0612487792969 C 592.913818359375 370.743408203125 590.4224243164063 380.4324951171875 587.4903564453125 389.8594970703125 C 584.5908203125 399.1817932128906 581.1909790039063 408.4707336425781 577.3854370117188 417.4681701660156 C 573.6150512695313 426.3824768066406 569.357666015625 435.2203369140625 564.7315063476563 443.7362670898438 C 560.1381225585938 452.1919555664063 555.0738525390625 460.5278015136719 549.6795654296875 468.5124816894531 C 538.9298095703125 484.4241943359375 526.5842895507813 499.3871765136719 512.9857788085938 512.9857788085938 C 499.3871765136719 526.5842895507813 484.4241943359375 538.9298095703125 468.5124816894531 549.6795654296875 C 460.5278015136719 555.0738525390625 452.1919555664063 560.1381225585938 443.7362670898438 564.7315063476563 C 435.2203369140625 569.357666015625 426.3824768066406 573.6150512695313 417.4681701660156 577.3854370117188 C 408.4707336425781 581.1909790039063 399.1817932128906 584.5908203125 389.8594970703125 587.4903564453125 C 380.4324951171875 590.4224243164063 370.743408203125 592.913818359375 361.0612487792969 594.8952026367188 C 351.2527160644531 596.9022827148438 341.214111328125 598.434326171875 331.2241821289063 599.4488525390625 C 321.0873413085938 600.478271484375 310.7500915527344 601.000244140625 300.4998779296875 601.000244140625 Z M 300.4998779296875 53.35433578491211 C 164.2234191894531 53.35433578491211 53.35433578491211 164.2234191894531 53.35433578491211 300.4998779296875 C 53.35433578491211 436.7765808105469 164.2234191894531 547.6458740234375 300.4998779296875 547.6458740234375 C 436.7765808105469 547.6458740234375 547.6458740234375 436.7765808105469 547.6458740234375 300.4998779296875 C 547.6458740234375 164.2234191894531 436.7765808105469 53.35433578491211 300.4998779296875 53.35433578491211 Z" stroke="none" fill="#fff"></path></g></svg> 