<?xml version="1.0" encoding="UTF-8"?> <svg xmlns="http://www.w3.org/2000/svg" width="980" height="980" viewBox="0 0 980 980"><g id="Subtraction_4" data-name="Subtraction 4" transform="translate(0)" fill="none" opacity="0.24"><path d="M490,980a497.893,497.893,0,0,1-50.1-2.53,491.275,491.275,0,0,1-48.652-7.425c-15.788-3.231-31.587-7.293-46.959-12.074-15.2-4.728-30.348-10.272-45.019-16.477-14.537-6.148-28.948-13.091-42.833-20.634-13.787-7.49-27.38-15.748-40.4-24.544A492.7,492.7,0,0,1,83.684,763.964c-8.8-13.02-17.054-26.612-24.544-40.4-7.543-13.886-14.485-28.3-20.634-42.833-6.205-14.671-11.749-29.818-16.477-45.019-4.781-15.373-8.844-31.173-12.074-46.959A491.251,491.251,0,0,1,2.53,540.1a497.357,497.357,0,0,1,0-100.2,491.267,491.267,0,0,1,7.425-48.652c3.231-15.786,7.293-31.586,12.074-46.959,4.728-15.2,10.272-30.348,16.477-45.019,6.149-14.537,13.091-28.948,20.634-42.833,7.49-13.787,15.748-27.38,24.544-40.4A492.7,492.7,0,0,1,216.036,83.684c13.02-8.8,26.613-17.054,40.4-24.544,13.885-7.543,28.3-14.485,42.833-20.634,14.672-6.206,29.818-11.749,45.019-16.477,15.373-4.781,31.172-8.844,46.959-12.074A491.267,491.267,0,0,1,439.9,2.53a497.357,497.357,0,0,1,100.2,0,491.251,491.251,0,0,1,48.653,7.425c15.786,3.231,31.586,7.293,46.959,12.074,15.2,4.728,30.348,10.272,45.019,16.477,14.536,6.148,28.947,13.09,42.833,20.634,13.788,7.49,27.381,15.748,40.4,24.544A492.7,492.7,0,0,1,896.316,216.036c8.8,13.02,17.054,26.613,24.544,40.4,7.543,13.885,14.485,28.3,20.634,42.833,6.206,14.672,11.749,29.818,16.477,45.019,4.781,15.371,8.844,31.171,12.074,46.959a491.275,491.275,0,0,1,7.425,48.652,497.362,497.362,0,0,1,0,100.2,491.261,491.261,0,0,1-7.425,48.653c-3.231,15.788-7.293,31.587-12.074,46.959-4.728,15.2-10.272,30.348-16.477,45.019-6.148,14.536-13.09,28.947-20.634,42.833-7.49,13.788-15.748,27.381-24.544,40.4A492.7,492.7,0,0,1,763.964,896.316c-13.02,8.8-26.612,17.054-40.4,24.544-13.886,7.543-28.3,14.486-42.833,20.634-14.671,6.206-29.818,11.749-45.019,16.477-15.372,4.781-31.171,8.844-46.959,12.074a491.261,491.261,0,0,1-48.653,7.425A497.884,497.884,0,0,1,490,980Zm0-893C267.785,87,87,267.785,87,490S267.785,893,490,893,893,712.215,893,490,712.215,87,490,87Z" stroke="none"></path><path d="M 489.9996948242188 979.0003051757813 C 506.680419921875 979.0003051757813 523.50244140625 978.1509399414063 539.9981689453125 976.4757080078125 C 556.2560424804688 974.8245849609375 572.591796875 972.3314208984375 588.5515747070313 969.0654296875 C 604.3060302734375 965.841552734375 620.0728149414063 961.7874145507813 635.4139404296875 957.0159301757813 C 650.5830688476563 952.2977905273438 665.6985473632813 946.7654418945313 680.3404541015625 940.5724487304688 C 694.846435546875 934.4370727539063 709.2279052734375 927.5091552734375 723.085693359375 919.981201171875 C 736.8439331054688 912.5074462890625 750.4088134765625 904.2665405273438 763.4039306640625 895.4873046875 C 789.2965698242188 877.9945678710938 813.6459350585938 857.9046630859375 835.7754516601563 835.7754516601563 C 857.9046630859375 813.6459350585938 877.9945678710938 789.2965698242188 895.4873046875 763.4039306640625 C 904.2665405273438 750.4088134765625 912.5074462890625 736.8439331054688 919.981201171875 723.085693359375 C 927.5091552734375 709.2279052734375 934.4370727539063 694.846435546875 940.5724487304688 680.3404541015625 C 946.7654418945313 665.6985473632813 952.2977905273438 650.5830688476563 957.0159301757813 635.4139404296875 C 961.7874145507813 620.0728149414063 965.841552734375 604.3060302734375 969.0654296875 588.5515747070313 C 972.3314208984375 572.591796875 974.8245849609375 556.2560424804688 976.4757080078125 539.9981689453125 C 978.1509399414063 523.50244140625 979.0003051757813 506.680419921875 979.0003051757813 489.9996948242188 C 979.0003051757813 473.3190612792969 978.1509399414063 456.4970703125 976.4757080078125 440.0009460449219 C 974.8242797851563 423.7421875 972.3311767578125 407.4065551757813 969.0654296875 391.4480590820313 C 965.8411865234375 375.6921691894531 961.7871704101563 359.9254455566406 957.0159301757813 344.5859375 C 952.2980346679688 329.4169311523438 946.7656860351563 314.3014221191406 940.5724487304688 299.6591796875 C 934.436279296875 285.1519470214844 927.5084228515625 270.7704467773438 919.981201171875 256.9140625 C 912.5060424804688 243.15380859375 904.2651977539063 229.5889282226563 895.4873046875 216.5961761474609 C 877.9943237304688 190.7030639648438 857.904296875 166.3538055419922 835.7754516601563 144.2248077392578 C 813.6459350585938 122.0955581665039 789.2965698242188 102.0056838989258 763.4039306640625 84.5130615234375 C 750.4085693359375 75.73368072509766 736.8435668945313 67.49280548095703 723.085693359375 60.01930999755859 C 709.2284545898438 52.49143218994141 694.8468017578125 45.56343460083008 680.3404541015625 39.42780685424805 C 665.6992797851563 33.23518371582031 650.5838012695313 27.70293235778809 635.4139404296875 22.98443222045898 C 620.0728149414063 18.21293258666992 604.3060302734375 14.15893268585205 588.5515747070313 10.93493270874023 C 572.5902099609375 7.668807983398438 556.2544555664063 5.17568302154541 539.9981689453125 3.524808168411255 C 523.50244140625 1.849558115005493 506.680419921875 1.00018310546875 489.9996948242188 1.00018310546875 C 473.3190612792969 1.00018310546875 456.4970703125 1.849558115005493 440.0009460449219 3.524808168411255 C 423.7438049316406 5.175932884216309 407.4081726074219 7.668932914733887 391.4480590820313 10.93493270874023 C 375.6934204101563 14.1588077545166 359.9266967773438 18.21293258666992 344.5859375 22.98443222045898 C 329.4161682128906 27.70268249511719 314.3006896972656 33.23505783081055 299.6591796875 39.42780685424805 C 285.1525573730469 45.56368255615234 270.7709350585938 52.49168395996094 256.9140625 60.01930999755859 C 243.154052734375 67.49430847167969 229.5891876220703 75.73518371582031 216.5961761474609 84.5130615234375 C 190.7026824951172 102.0064315795898 166.3534393310547 122.096305847168 144.2248077392578 144.2248077392578 C 122.096305847168 166.3534393310547 102.0064315795898 190.7026824951172 84.5130615234375 216.5961761474609 C 75.73518371582031 229.5891876220703 67.49430847167969 243.154052734375 60.01930999755859 256.9140625 C 52.49168395996094 270.7709350585938 45.56368255615234 285.1525573730469 39.42780685424805 299.6591796875 C 33.23505783081055 314.3006896972656 27.70268249511719 329.4161682128906 22.98443222045898 344.5859375 C 18.21293258666992 359.9266967773438 14.1588077545166 375.6934204101563 10.93493270874023 391.4480590820313 C 7.668932914733887 407.4081726074219 5.175932884216309 423.7438049316406 3.524808168411255 440.0009460449219 C 1.849558115005493 456.4970703125 1.00018310546875 473.3190612792969 1.00018310546875 489.9996948242188 C 1.00018310546875 506.680419921875 1.849558115005493 523.50244140625 3.524808168411255 539.9981689453125 C 5.17568302154541 556.2544555664063 7.668807983398438 572.5902099609375 10.93493270874023 588.5515747070313 C 14.15893268585205 604.3060302734375 18.21293258666992 620.0728149414063 22.98443222045898 635.4139404296875 C 27.70293235778809 650.5838012695313 33.23518371582031 665.6992797851563 39.42780685424805 680.3404541015625 C 45.56343460083008 694.8468017578125 52.49143218994141 709.2284545898438 60.01930999755859 723.085693359375 C 67.49280548095703 736.8435668945313 75.73368072509766 750.4085693359375 84.5130615234375 763.4039306640625 C 102.0056838989258 789.2965698242188 122.0955581665039 813.6459350585938 144.2248077392578 835.7754516601563 C 166.3538055419922 857.904296875 190.7030639648438 877.9943237304688 216.5963134765625 895.4873046875 C 229.5889282226563 904.2651977539063 243.15380859375 912.5060424804688 256.9140625 919.981201171875 C 270.7704467773438 927.5084228515625 285.1519470214844 934.436279296875 299.6591796875 940.5724487304688 C 314.3014221191406 946.7656860351563 329.4169311523438 952.2980346679688 344.5859375 957.0159301757813 C 359.9254455566406 961.7871704101563 375.6921691894531 965.8411865234375 391.4480590820313 969.0654296875 C 407.4065551757813 972.3311767578125 423.7421875 974.8242797851563 440.0009460449219 976.4757080078125 C 456.4970703125 978.1509399414063 473.3190612792969 979.0003051757813 489.9996948242188 979.0003051757813 M 489.9996948242188 86.00043487548828 C 712.7660522460938 86.00043487548828 893.9998168945313 267.2336730957031 893.9998168945313 489.9996948242188 C 893.9998168945313 712.7660522460938 712.7660522460938 893.9998168945313 489.9996948242188 893.9998168945313 C 267.2336730957031 893.9998168945313 86.00043487548828 712.7660522460938 86.00043487548828 489.9996948242188 C 86.00043487548828 267.2336730957031 267.2336730957031 86.00043487548828 489.9996948242188 86.00043487548828 M 489.9996948242188 980.0003051757813 C 473.2854309082031 980.0003051757813 456.4295654296875 979.149169921875 439.8999328613281 977.4705810546875 C 423.6100463867188 975.8160400390625 407.2411804199219 973.3180541992188 391.24755859375 970.045166015625 C 375.4594421386719 966.8143310546875 359.6603088378906 962.751953125 344.2889404296875 957.9708251953125 C 329.0877990722656 953.242919921875 313.9411926269531 947.6990356445313 299.2696838378906 941.493408203125 C 284.7330627441406 935.3449096679688 270.3220520019531 928.4029541015625 256.4366760253906 920.8599243164063 C 242.6493072509766 913.3700561523438 229.0565643310547 905.1123046875 216.0364379882813 896.31591796875 C 190.0901794433594 878.7870483398438 165.6913146972656 858.6560668945313 143.5176849365234 836.4825439453125 C 121.3436813354492 814.3081665039063 101.2128067016602 789.9093017578125 83.68443298339844 763.9636840820313 C 74.88843536376953 750.9436645507813 66.63056182861328 737.3511962890625 59.14055633544922 723.5630493164063 C 51.59730911254883 709.6774291992188 44.65505981445313 695.2661743164063 38.50680923461914 680.7299194335938 C 32.30143356323242 666.0585327148438 26.75768280029297 650.9119262695313 22.0295581817627 635.7109375 C 17.2480583190918 620.3377075195313 13.18568325042725 604.538330078125 9.955183029174805 588.7520751953125 C 6.682433128356934 572.7581787109375 4.184183120727539 556.388916015625 2.529933214187622 540.0991821289063 C 0.8513081073760986 523.5699462890625 0.00018310546875 506.7138061523438 0.00018310546875 489.9996948242188 C 0.00018310546875 473.2854309082031 0.8513081073760986 456.4295654296875 2.529933214187622 439.8999328613281 C 4.184308052062988 423.6100463867188 6.682433128356934 407.2411804199219 9.955183029174805 391.24755859375 C 13.18568325042725 375.4610595703125 17.2480583190918 359.6618041992188 22.0295581817627 344.2889404296875 C 26.75755882263184 329.0877990722656 32.30130767822266 313.9411926269531 38.50680923461914 299.2696838378906 C 44.65543365478516 284.7328186035156 51.59768295288086 270.3216857910156 59.14055633544922 256.4366760253906 C 66.63043212890625 242.6493072509766 74.88818359375 229.0565643310547 83.68443298339844 216.0364379882813 C 101.2131805419922 190.0904388427734 121.3439331054688 165.6915588378906 143.5176849365234 143.5176849365234 C 165.6915588378906 121.3439331054688 190.0904388427734 101.2131805419922 216.0364379882813 83.68443298339844 C 229.0565643310547 74.88818359375 242.6493072509766 66.63043212890625 256.4366760253906 59.14055633544922 C 270.3216857910156 51.59768295288086 284.7328186035156 44.65543365478516 299.2696838378906 38.50680923461914 C 313.9411926269531 32.30130767822266 329.0877990722656 26.75755882263184 344.2889404296875 22.0295581817627 C 359.6618041992188 17.2480583190918 375.4610595703125 13.18568325042725 391.24755859375 9.955183029174805 C 407.2411804199219 6.682433128356934 423.6100463867188 4.184308052062988 439.8999328613281 2.529933214187622 C 456.4295654296875 0.8513081073760986 473.2854309082031 0.00018310546875 489.9996948242188 0.00018310546875 C 506.7138061523438 0.00018310546875 523.5699462890625 0.8513081073760986 540.0991821289063 2.529933214187622 C 556.388916015625 4.184183120727539 572.7581787109375 6.682433128356934 588.7520751953125 9.955183029174805 C 604.538330078125 13.18568325042725 620.3377075195313 17.2480583190918 635.7109375 22.0295581817627 C 650.9119262695313 26.75768280029297 666.0585327148438 32.30143356323242 680.7299194335938 38.50680923461914 C 695.2661743164063 44.65505981445313 709.6774291992188 51.59730911254883 723.5630493164063 59.14055633544922 C 737.3511962890625 66.63056182861328 750.9436645507813 74.88843536376953 763.9636840820313 83.68443298339844 C 789.9093017578125 101.2128067016602 814.3081665039063 121.3436813354492 836.4825439453125 143.5176849365234 C 858.6560668945313 165.6913146972656 878.7870483398438 190.0901794433594 896.31591796875 216.0364379882813 C 905.1123046875 229.0565643310547 913.3700561523438 242.6493072509766 920.8599243164063 256.4366760253906 C 928.4029541015625 270.3220520019531 935.3449096679688 284.7330627441406 941.493408203125 299.2696838378906 C 947.6990356445313 313.9411926269531 953.242919921875 329.0877990722656 957.9708251953125 344.2889404296875 C 962.751953125 359.6603088378906 966.8143310546875 375.4594421386719 970.045166015625 391.24755859375 C 973.3180541992188 407.2411804199219 975.8160400390625 423.6100463867188 977.4705810546875 439.8999328613281 C 979.149169921875 456.4295654296875 980.0003051757813 473.2854309082031 980.0003051757813 489.9996948242188 C 980.0003051757813 506.7138061523438 979.149169921875 523.5699462890625 977.4705810546875 540.0991821289063 C 975.816162109375 556.388916015625 973.3180541992188 572.7581787109375 970.045166015625 588.7520751953125 C 966.814453125 604.539794921875 962.751953125 620.3390502929688 957.9708251953125 635.7109375 C 953.2427978515625 650.9119262695313 947.6989135742188 666.0585327148438 941.493408203125 680.7299194335938 C 935.345458984375 695.2659301757813 928.4033203125 709.6770629882813 920.8599243164063 723.5630493164063 C 913.3699340820313 737.3511962890625 905.112060546875 750.9436645507813 896.31591796875 763.9636840820313 C 878.7872924804688 789.9095458984375 858.6564331054688 814.3082885742188 836.4825439453125 836.4825439453125 C 814.3082885742188 858.6564331054688 789.9095458984375 878.7872924804688 763.9636840820313 896.31591796875 C 750.9436645507813 905.112060546875 737.3511962890625 913.3699340820313 723.5630493164063 920.8599243164063 C 709.6770629882813 928.4033203125 695.2659301757813 935.345458984375 680.7299194335938 941.493408203125 C 666.0585327148438 947.6989135742188 650.9119262695313 953.2427978515625 635.7109375 957.9708251953125 C 620.3390502929688 962.751953125 604.539794921875 966.814453125 588.7520751953125 970.045166015625 C 572.7581787109375 973.3180541992188 556.388916015625 975.816162109375 540.0991821289063 977.4705810546875 C 523.5699462890625 979.149169921875 506.7138061523438 980.0003051757813 489.9996948242188 980.0003051757813 Z M 489.9996948242188 87.00043487548828 C 267.7851867675781 87.00043487548828 87.00043487548828 267.7851867675781 87.00043487548828 489.9996948242188 C 87.00043487548828 712.2145385742188 267.7851867675781 892.9998168945313 489.9996948242188 892.9998168945313 C 712.2145385742188 892.9998168945313 892.9998168945313 712.2145385742188 892.9998168945313 489.9996948242188 C 892.9998168945313 267.7851867675781 712.2145385742188 87.00043487548828 489.9996948242188 87.00043487548828 Z" stroke="none" fill="#707070"></path></g></svg> 