<?xml version="1.0" encoding="UTF-8"?> <svg xmlns="http://www.w3.org/2000/svg" width="980" height="980" viewBox="0 0 980 980"><path id="Subtraction_3" data-name="Subtraction 3" d="M490,980a497.893,497.893,0,0,1-50.1-2.53,491.275,491.275,0,0,1-48.652-7.425c-15.788-3.231-31.587-7.293-46.959-12.074-15.2-4.728-30.348-10.272-45.019-16.477-14.537-6.148-28.948-13.091-42.833-20.634-13.787-7.49-27.38-15.748-40.4-24.544A492.7,492.7,0,0,1,83.684,763.964c-8.8-13.02-17.054-26.612-24.544-40.4-7.543-13.886-14.485-28.3-20.634-42.833-6.205-14.671-11.749-29.818-16.477-45.019-4.781-15.373-8.844-31.173-12.074-46.959A491.251,491.251,0,0,1,2.53,540.1a497.357,497.357,0,0,1,0-100.2,491.267,491.267,0,0,1,7.425-48.652c3.231-15.786,7.293-31.586,12.074-46.959,4.728-15.2,10.272-30.348,16.477-45.019,6.149-14.537,13.091-28.948,20.634-42.833,7.49-13.787,15.748-27.38,24.544-40.4A492.7,492.7,0,0,1,216.036,83.684c13.02-8.8,26.613-17.054,40.4-24.544,13.885-7.543,28.3-14.485,42.833-20.634,14.672-6.206,29.818-11.749,45.019-16.477,15.373-4.781,31.172-8.844,46.959-12.074A491.267,491.267,0,0,1,439.9,2.53a497.357,497.357,0,0,1,100.2,0,491.251,491.251,0,0,1,48.653,7.425c15.786,3.231,31.586,7.293,46.959,12.074,15.2,4.728,30.348,10.272,45.019,16.477,14.536,6.148,28.947,13.09,42.833,20.634,13.788,7.49,27.381,15.748,40.4,24.544A492.7,492.7,0,0,1,896.316,216.036c8.8,13.02,17.054,26.613,24.544,40.4,7.543,13.885,14.485,28.3,20.634,42.833,6.206,14.672,11.749,29.818,16.477,45.019,4.781,15.371,8.844,31.171,12.074,46.959a491.275,491.275,0,0,1,7.425,48.652,497.362,497.362,0,0,1,0,100.2,491.261,491.261,0,0,1-7.425,48.653c-3.231,15.788-7.293,31.587-12.074,46.959-4.728,15.2-10.272,30.348-16.477,45.019-6.148,14.536-13.09,28.947-20.634,42.833-7.49,13.788-15.748,27.381-24.544,40.4A492.7,492.7,0,0,1,763.964,896.316c-13.02,8.8-26.612,17.054-40.4,24.544-13.886,7.543-28.3,14.486-42.833,20.634-14.671,6.206-29.818,11.749-45.019,16.477-15.372,4.781-31.171,8.844-46.959,12.074a491.261,491.261,0,0,1-48.653,7.425A497.884,497.884,0,0,1,490,980Zm0-840c-192.99,0-350,157.009-350,350S297.009,840,490,840,840,682.99,840,490,682.99,140,490,140Z" transform="translate(0)" fill="#4facfe" opacity="0.08"></path></svg> 