<?xml version="1.0" encoding="UTF-8"?> <svg xmlns="http://www.w3.org/2000/svg" width="1036" height="758.098" viewBox="0 0 1036 758.098"><g id="Subtraction_9" data-name="Subtraction 9" transform="translate(0 -277.902)" fill="none" opacity="0.34"><path d="M518,1036a526.3,526.3,0,0,1-52.963-2.674,519.287,519.287,0,0,1-51.432-7.849c-16.687-3.415-33.39-7.709-49.642-12.764-16.07-5-32.082-10.859-47.592-17.419-15.366-6.5-30.6-13.838-45.281-21.813-14.575-7.917-28.944-16.647-42.709-25.946-13.7-9.253-27.114-19.286-39.877-29.82-12.733-10.508-25.109-21.756-36.785-33.433s-22.925-24.053-33.433-36.785c-10.533-12.763-20.566-26.18-29.82-39.878-9.3-13.764-18.028-28.133-25.946-42.709C54.545,750.23,47.206,735,40.707,719.629c-6.56-15.509-12.42-31.521-17.419-47.591-5.055-16.253-9.35-32.954-12.764-49.642a519.376,519.376,0,0,1-7.85-51.433A526.325,526.325,0,0,1,0,518c0-13.152.526-25.861,1.564-37.773a331.263,331.263,0,0,1,4.61-33.655A256.2,256.2,0,0,1,13.708,416.8a206.032,206.032,0,0,1,10.336-26.115A175.827,175.827,0,0,1,37.061,368a160.671,160.671,0,0,1,33.585-36.046,177.406,177.406,0,0,1,20.324-13.818c26.782-15.654,60.144-26.333,101.993-32.647,18.568-2.8,38.752-4.763,61.706-6,19.86-1.068,41.953-1.587,67.543-1.587,31.139,0,63.287.745,97.322,1.534h.011c35.852.831,72.924,1.69,110.72,1.69,38.133,0,74.927-.871,110.511-1.713h.022c32.833-.777,63.846-1.511,93.521-1.511,24.611,0,45.765.519,64.672,1.586a573.213,573.213,0,0,1,58.446,5.995c9.321,1.492,18.29,3.252,26.658,5.231,8.693,2.056,17.045,4.421,24.824,7.029a224.121,224.121,0,0,1,22.9,9.06,184.58,184.58,0,0,1,20.88,11.322,161.671,161.671,0,0,1,18.77,13.817,153.239,153.239,0,0,1,16.567,16.544,158.633,158.633,0,0,1,14.271,19.5,178.891,178.891,0,0,1,11.884,22.693,216.734,216.734,0,0,1,9.4,26.116,276.171,276.171,0,0,1,6.831,29.77c1.841,10.572,3.242,21.9,4.167,33.657.935,11.9,1.409,24.612,1.409,37.776a526.327,526.327,0,0,1-2.674,52.962,519.317,519.317,0,0,1-7.85,51.433c-3.415,16.688-7.709,33.389-12.764,49.642-5,16.071-10.859,32.083-17.419,47.591-6.5,15.366-13.838,30.6-21.813,45.281-7.918,14.575-16.647,28.944-25.946,42.709-9.253,13.7-19.286,27.114-29.82,39.878-10.507,12.732-21.756,25.108-33.433,36.785s-24.053,22.925-36.785,33.433c-12.764,10.534-26.181,20.567-39.878,29.82-13.765,9.3-28.134,18.029-42.709,25.946-14.68,7.975-29.915,15.314-45.281,21.813-15.509,6.56-31.521,12.42-47.592,17.419-16.253,5.055-32.954,9.35-49.642,12.764a519.267,519.267,0,0,1-51.433,7.849A526.292,526.292,0,0,1,518,1036ZM289.985,334.192c-16.588,0-31.151.484-44.521,1.479a331.807,331.807,0,0,0-40.158,5.229c-26.756,5.309-48.112,13.975-65.289,26.494a115.993,115.993,0,0,0-24.16,23.656A125.642,125.642,0,0,0,106.109,406,145.291,145.291,0,0,0,98,423.24a177.841,177.841,0,0,0-6.414,19.668,226.415,226.415,0,0,0-4.656,22.25c-1.254,7.872-2.209,16.276-2.838,24.981-.637,8.8-.96,18.178-.96,27.862C83.13,757.788,278.212,952.87,518,952.87S952.87,757.788,952.87,518c0-9.683-.323-19.057-.96-27.862-.629-8.7-1.584-17.108-2.838-24.981a226.457,226.457,0,0,0-4.656-22.25A177.83,177.83,0,0,0,938,423.239,145.281,145.281,0,0,0,929.891,406a125.645,125.645,0,0,0-9.747-14.954,115.99,115.99,0,0,0-24.16-23.656c-17.177-12.519-38.533-21.185-65.289-26.494a331.754,331.754,0,0,0-40.158-5.229c-13.369-.994-27.932-1.477-44.521-1.477-31.229,0-65.06,1.724-100.877,3.549-40.757,2.077-82.9,4.225-127.138,4.225s-86.368-2.148-127.117-4.225h-.006c-35.811-1.825-69.636-3.549-100.86-3.549Z" stroke="none"></path><path d="M 518.0003662109375 1034.999877929688 C 535.6365966796875 1034.999877929688 553.4218139648438 1034.101806640625 570.86181640625 1032.33056640625 C 588.0490112304688 1030.58544921875 605.3199462890625 1027.949584960938 622.1950073242188 1024.496337890625 C 638.8487548828125 1021.088623046875 655.518310546875 1016.802490234375 671.7406005859375 1011.756896972656 C 687.7791137695313 1006.768310546875 703.7600708007813 1000.919250488281 719.2393798828125 994.3719482421875 C 734.5752563476563 987.8856811523438 749.7803344726563 980.5609741210938 764.4323120117188 972.6015625 C 778.979248046875 964.6991577148438 793.3208618164063 955.986328125 807.0588989257813 946.7051391601563 C 820.72900390625 937.4699096679688 834.1200561523438 927.4563598632813 846.8596801757813 916.942626953125 C 859.5657958984375 906.4567260742188 871.91845703125 895.2300415039063 883.5743408203125 883.5743408203125 C 895.2299194335938 871.91845703125 906.4567260742188 859.5657958984375 916.9427490234375 846.8595581054688 C 927.4556884765625 834.120849609375 937.4692993164063 820.7299194335938 946.7051391601563 807.0587158203125 C 955.986328125 793.3208618164063 964.6991577148438 778.979248046875 972.6015625 764.4323120117188 C 980.5608520507813 749.7803344726563 987.8855590820313 734.5752563476563 994.3719482421875 719.2393798828125 C 1000.919128417969 703.7604370117188 1006.768188476563 687.779541015625 1011.756896972656 671.7406005859375 C 1016.802490234375 655.518310546875 1021.088623046875 638.8487548828125 1024.496337890625 622.1950073242188 C 1027.949096679688 605.3219604492188 1030.5849609375 588.051025390625 1032.330688476563 570.86181640625 C 1034.101928710938 553.42138671875 1035 535.63623046875 1035 518.00048828125 C 1035 504.8615417480469 1034.526733398438 492.1781921386719 1033.593627929688 480.3026123046875 C 1032.672119140625 468.5732727050781 1031.274169921875 457.2807312011719 1029.438842773438 446.7385864257813 C 1027.629150390625 436.3423461914063 1025.339233398438 426.3624572753906 1022.632751464844 417.0764770507813 C 1019.967834472656 407.9331359863281 1016.818603515625 399.187255859375 1013.272888183594 391.0816650390625 C 1009.786987304688 383.1130065917969 1005.811279296875 375.5208740234375 1001.4560546875 368.5160522460938 C 997.1810302734375 361.6400756835938 992.4097900390625 355.1199340820313 987.2750244140625 349.1369934082031 C 982.243408203125 343.2743225097656 976.7060546875 337.7447204589844 970.8164672851563 332.7018127441406 C 965.0567626953125 327.7700805664063 958.7808837890625 323.1502075195313 952.1631469726563 318.9707336425781 C 945.7081909179688 314.893798828125 938.7212524414063 311.1051330566406 931.3963623046875 307.710205078125 C 924.2752685546875 304.40966796875 916.6056518554688 301.3752746582031 908.6005859375 298.6910095214844 C 900.8507690429688 296.0924682617188 892.528076171875 293.7359313964844 883.8639526367188 291.6867370605469 C 875.5202026367188 289.7132568359375 866.5755615234375 287.9581909179688 857.2784423828125 286.4699401855469 C 839.804443359375 283.6727294921875 820.7196655273438 281.7153930664063 798.9336547851563 280.4860534667969 C 780.0462036132813 279.4200744628906 758.9102172851563 278.9019470214844 734.3181762695313 278.9019470214844 C 704.6504516601563 278.9019470214844 673.6461791992188 279.6355285644531 640.8191528320313 280.4123229980469 L 640.810791015625 280.4125061035156 L 640.7990112304688 280.4128723144531 L 640.7828979492188 280.4132690429688 C 605.1988525390625 281.2552795410156 568.4033813476563 282.1259460449219 530.2647094726563 282.1259460449219 C 492.4680786132813 282.1259460449219 455.4003295898438 281.2671203613281 419.5528869628906 280.4364624023438 L 419.5203247070313 280.435791015625 L 419.5099487304688 280.435546875 C 385.4812622070313 279.6468811035156 353.3399353027344 278.9019470214844 322.2124633789063 278.9019470214844 C 296.6416625976563 278.9019470214844 274.5659484863281 279.4203186035156 254.7235412597656 280.4868774414063 C 231.8024749755859 281.7188720703125 211.6496734619141 283.6771240234375 193.1132659912109 286.4737854003906 C 151.3919372558594 292.7683410644531 118.1459426879883 303.4061889648438 91.47527313232422 318.9951477050781 C 84.31260681152344 323.1815185546875 77.51327514648438 327.80419921875 71.26580810546875 332.7345886230469 C 64.86793518066406 337.7833862304688 58.84580612182617 343.3152770996094 53.36647415161133 349.1764526367188 C 47.76673889160156 355.1661987304688 42.55913925170898 361.6871337890625 37.88847351074219 368.5579223632813 C 33.1222038269043 375.5692749023438 28.7678050994873 383.1606140136719 24.94633865356445 391.1211242675781 C 21.0524730682373 399.2322082519531 17.59180641174316 407.9757995605469 14.66047191619873 417.1087341308594 C 11.6782054901123 426.4013977050781 9.15340518951416 436.3778076171875 7.156205654144287 446.7608642578125 C 5.126872062683105 457.3096618652344 3.580605745315552 468.5984802246094 2.560338973999023 480.3139343261719 C 1.525005578994751 492.1971435546875 1.000072240829468 504.8767395019531 1.000072240829468 518.00048828125 C 1.000072240829468 535.6355590820313 1.898072242736816 553.4207153320313 3.669272184371948 570.86181640625 C 5.415005683898926 588.0501708984375 8.050871849060059 605.3212890625 11.50367259979248 622.1950073242188 C 14.91167259216309 638.8496704101563 19.19793891906738 655.5191040039063 24.24340629577637 671.7406005859375 C 29.2318058013916 687.7791137695313 35.08087158203125 703.7600708007813 41.62820434570313 719.2393798828125 C 48.11433792114258 734.5748901367188 55.43900680541992 749.7799072265625 63.39873886108398 764.4323120117188 C 71.30073547363281 778.9785766601563 80.01340484619141 793.3201904296875 89.29500579833984 807.0587158203125 C 98.53127288818359 820.730224609375 108.5447387695313 834.1211547851563 119.0575408935547 846.8595581054688 C 129.5449981689453 859.5675048828125 140.7716674804688 871.9202270507813 152.4258117675781 883.5743408203125 C 164.0794067382813 895.2279052734375 176.4319458007813 906.4547119140625 189.1406097412109 916.942626953125 C 201.8798065185547 927.4560546875 215.2707366943359 937.4696655273438 228.94140625 946.7051391601563 C 242.6808776855469 955.9872436523438 257.0226135253906 964.7000732421875 271.5679321289063 972.6015625 C 286.2203369140625 980.5609741210938 301.4254150390625 987.8856811523438 316.7610168457031 994.3719482421875 C 332.2407531738281 1000.919372558594 348.2216796875 1006.768493652344 364.2599487304688 1011.756896972656 C 380.4810180664063 1016.802185058594 397.1506042480469 1021.088317871094 413.8058166503906 1024.496337890625 C 430.6792602539063 1027.94921875 447.9501953125 1030.585083007813 465.1388854980469 1032.33056640625 C 482.5790100097656 1034.101806640625 500.3641967773438 1034.999877929688 518.0003662109375 1034.999877929688 M 289.9847412109375 333.1919250488281 L 290.0168762207031 333.1919250488281 C 321.2658081054688 333.1919250488281 355.1029968261719 334.9163208007813 390.9279479980469 336.7421875 L 390.934326171875 336.7424621582031 L 390.9385986328125 336.7427368164063 C 431.6735534667969 338.8190002441406 473.79541015625 340.9659423828125 518.0003662109375 340.9659423828125 C 562.2123413085938 340.9659423828125 604.3424682617188 338.8188781738281 645.0894165039063 336.7423400878906 C 680.9187622070313 334.9164733886719 714.7611694335938 333.1919250488281 746.0155639648438 333.1919250488281 C 762.6290283203125 333.1919250488281 777.216064453125 333.6760559082031 790.6103515625 334.6719360351563 C 805.508056640625 335.779541015625 818.6834106445313 337.4952697753906 830.88916015625 339.9171447753906 C 857.7905883789063 345.2550048828125 879.2756958007813 353.9779357910156 896.5722045898438 366.5843200683594 C 901.1622314453125 369.929931640625 905.5181884765625 373.6068725585938 909.5194091796875 377.5132751464844 C 913.6033935546875 381.5003356933594 917.4456787109375 385.8507385253906 920.9393920898438 390.4435424804688 C 924.49658203125 395.1196594238281 927.8021850585938 400.1908569335938 930.7643432617188 405.5163269042969 C 933.7735595703125 410.9256591796875 936.5215454101563 416.7648620605469 938.9317016601563 422.8717956542969 C 941.3759155273438 429.0648803710938 943.5460815429688 435.7196655273438 945.382080078125 442.6513977050781 C 947.24169921875 449.6716613769531 948.8154296875 457.1908569335938 950.0595092773438 465.0002136230469 C 951.3176879882813 472.9004516601563 952.2759399414063 481.3340759277344 952.9074096679688 490.0667419433594 C 953.5459594726563 498.8963317871094 953.8696899414063 508.2945861816406 953.8696899414063 518.00048828125 C 953.8696899414063 758.3396606445313 758.3395385742188 953.8698120117188 518.0003662109375 953.8698120117188 C 277.6608581542969 953.8698120117188 82.13034057617188 758.3396606445313 82.13034057617188 518.00048828125 C 82.13034057617188 508.2936706542969 82.45407104492188 498.8953857421875 83.09273529052734 490.0667419433594 C 83.72420501708984 481.3343200683594 84.68234252929688 472.90087890625 85.94060516357422 465.0004577636719 C 87.1842041015625 457.1936645507813 88.75794219970703 449.6744689941406 90.61807250976563 442.6517944335938 C 92.45407104492188 435.7200622558594 94.62433624267578 429.0653991699219 97.06847381591797 422.8724670410156 C 99.47780609130859 416.7673950195313 102.2256698608398 410.9283447265625 105.2356719970703 405.5173950195313 C 108.1982040405273 400.1912536621094 111.5038070678711 395.1200561523438 115.0606079101563 390.4447326660156 C 118.5556716918945 385.8505859375 122.3979415893555 381.5003356933594 126.4807357788086 377.5147399902344 C 130.4835357666016 373.6069946289063 134.8395385742188 369.9302062988281 139.4279327392578 366.5862121582031 C 156.7244720458984 353.9797973632813 178.2096710205078 345.2569885253906 205.1110076904297 339.9191284179688 C 217.3168792724609 337.4972534179688 230.4922027587891 335.7812805175781 245.3898010253906 334.6732788085938 C 258.7859497070313 333.677001953125 273.3730163574219 333.1924743652344 289.9847412109375 333.1919250488281 M 518.0003662109375 1035.999877929688 C 500.3298034667969 1035.999877929688 482.5107421875 1035.10009765625 465.0378112792969 1033.325561523438 C 447.8172607421875 1031.576782226563 430.5128784179688 1028.935913085938 413.6052856445313 1025.47607421875 C 396.9178161621094 1022.061401367188 380.2156677246094 1017.766845703125 363.9630126953125 1012.711791992188 C 347.8934020996094 1007.713684082031 331.8812866210938 1001.853149414063 316.3713989257813 995.2930297851563 C 301.0056762695313 988.7939453125 285.77099609375 981.4550170898438 271.0906066894531 973.480224609375 C 256.5159301757813 965.5628662109375 242.1466064453125 956.8331298828125 228.3815460205078 947.5338134765625 C 214.6846008300781 938.2804565429688 201.2679443359375 928.2476806640625 188.5040740966797 917.7139282226563 C 175.7715454101563 907.2061767578125 163.3951416015625 895.9579467773438 151.7187347412109 884.2813720703125 C 140.0423431396484 872.60498046875 128.7940673828125 860.228759765625 118.2862091064453 847.49609375 C 107.7534027099609 834.7332763671875 97.72047424316406 821.3164672851563 88.46633911132813 807.6185913085938 C 79.16767120361328 793.854736328125 70.43794250488281 779.4854125976563 62.52007293701172 764.90966796875 C 54.54540634155273 750.2297973632813 47.20634078979492 734.9951171875 40.70713806152344 719.6290283203125 C 34.14740753173828 704.1200561523438 28.28687286376953 688.1080932617188 23.28847312927246 672.0375366210938 C 18.23340606689453 655.7849731445313 13.93873882293701 639.0830078125 10.52393913269043 622.3955078125 C 7.064339160919189 605.4883422851563 4.423405647277832 588.1837768554688 2.674339056015015 570.962890625 C 0.8998056054115295 553.488037109375 7.229817856568843e-05 535.6690063476563 7.229817856568843e-05 518.00048828125 C 7.229817856568843e-05 504.8487243652344 0.5262056589126587 492.1399230957031 1.564072251319885 480.2271423339844 C 2.58727240562439 468.4788818359375 4.138205528259277 457.1556701660156 6.174205780029297 446.5719299316406 C 8.17900562286377 436.1491394042969 10.71393871307373 426.1333923339844 13.70833873748779 416.8031311035156 C 16.65380477905273 407.6261901855469 20.13153839111328 398.8400573730469 24.04487228393555 390.6883239746094 C 27.88847160339355 382.6817932128906 32.26807403564453 375.0469970703125 37.06140518188477 367.9957885742188 C 41.76113891601563 361.0823364257813 47.00114059448242 354.5208740234375 52.63594055175781 348.4935302734375 C 58.14940643310547 342.5957946777344 64.20900726318359 337.029541015625 70.64633941650391 331.9495239257813 C 76.93060302734375 326.9900817871094 83.76860809326172 322.3412780761719 90.97060394287109 318.1318054199219 C 117.7526092529297 302.4778137207031 151.1150054931641 291.7988586425781 192.9640655517578 285.4849853515625 C 211.5316772460938 282.6836547851563 231.7158050537109 280.7220764160156 254.6697998046875 279.4883422851563 C 274.5299377441406 278.4208679199219 296.6232604980469 277.9019470214844 322.2124633789063 277.9019470214844 C 353.3519287109375 277.9019470214844 385.4995422363281 278.6470031738281 419.5346069335938 279.435791015625 L 419.5452575683594 279.4360656738281 C 455.396728515625 280.2667236328125 492.4688720703125 281.1259460449219 530.2647094726563 281.1259460449219 C 568.3973999023438 281.1259460449219 605.1920776367188 280.255126953125 640.775390625 279.4131469726563 L 640.7852783203125 279.4128723144531 L 640.7976684570313 279.41259765625 C 673.6309814453125 278.6356811523438 704.6435546875 277.9019470214844 734.3181762695313 277.9019470214844 C 758.9287109375 277.9019470214844 780.0830078125 278.4205932617188 798.9900512695313 279.4876708984375 C 820.8106079101563 280.718994140625 839.9285888671875 282.679931640625 857.4364624023438 285.4824523925781 C 866.7578125 286.974609375 875.7267456054688 288.7345886230469 884.0940551757813 290.7135314941406 C 892.7869873046875 292.76953125 901.13916015625 295.1344604492188 908.91845703125 297.7428588867188 C 916.958740234375 300.4388732910156 924.662841796875 303.4871215820313 931.81689453125 306.8028564453125 C 939.1800537109375 310.2156677246094 946.2052612304688 314.0249938964844 952.6971435546875 318.1252746582031 C 959.35595703125 322.3307189941406 965.6710205078125 326.9795227050781 971.4668579101563 331.9421997070313 C 977.3951416015625 337.0183410644531 982.968994140625 342.5843200683594 988.0338134765625 348.4858093261719 C 993.20166015625 354.5072631835938 998.0032958984375 361.0687255859375 1002.305297851563 367.9880676269531 C 1006.685424804688 375.0329895019531 1010.683776855469 382.6680603027344 1014.189025878906 390.6808776855469 C 1017.751953125 398.8255310058594 1020.915832519531 407.612060546875 1023.592712402344 416.7966003417969 C 1026.309326171875 426.1170043945313 1028.607788085938 436.1332702636719 1030.424072265625 446.567138671875 C 1032.2646484375 457.1395263671875 1033.66650390625 468.4634094238281 1034.590576171875 480.2242126464844 C 1035.525756835938 492.1261901855469 1036 504.8360595703125 1036 518.00048828125 C 1036 535.6710205078125 1035.10009765625 553.4900512695313 1033.32568359375 570.962890625 C 1031.576782226563 588.1835327148438 1028.935913085938 605.4879150390625 1025.47607421875 622.3955078125 C 1022.061401367188 639.0830078125 1017.766723632813 655.7849731445313 1012.711791992188 672.0375366210938 C 1007.713256835938 688.1080932617188 1001.852722167969 704.1200561523438 995.2930297851563 719.6290283203125 C 988.7938232421875 734.9947509765625 981.4548950195313 750.2293701171875 973.480224609375 764.90966796875 C 965.5626220703125 779.4847412109375 956.8330078125 793.8540649414063 947.5338134765625 807.6185913085938 C 938.2804565429688 821.3154296875 928.247802734375 834.7320556640625 917.7140502929688 847.49609375 C 907.2066040039063 860.2283325195313 895.9581909179688 872.6044921875 884.2814331054688 884.2813720703125 C 872.6044921875 895.9581909179688 860.2283325195313 907.2066040039063 847.4962158203125 917.7139282226563 C 834.7320556640625 928.247802734375 821.3154296875 938.2805786132813 807.6185913085938 947.5338134765625 C 793.8540649414063 956.8330078125 779.4847412109375 965.5626220703125 764.90966796875 973.480224609375 C 750.2294311523438 981.4550170898438 734.9947509765625 988.7939453125 719.6290283203125 995.2930297851563 C 704.1200561523438 1001.852722167969 688.1082153320313 1007.713256835938 672.0375366210938 1012.711791992188 C 655.7850341796875 1017.766723632813 639.0830078125 1022.061401367188 622.3955688476563 1025.47607421875 C 605.4876708984375 1028.935913085938 588.1832885742188 1031.576904296875 570.962890625 1033.325561523438 C 553.4900512695313 1035.10009765625 535.6710205078125 1035.999877929688 518.0003662109375 1035.999877929688 Z M 289.9847412109375 334.1919250488281 C 273.396728515625 334.1924743652344 258.8338012695313 334.6762084960938 245.4639434814453 335.6704711914063 C 230.6080780029297 336.775390625 217.4720764160156 338.4859313964844 205.3056793212891 340.9000549316406 C 178.5496673583984 346.2090148925781 157.1935424804688 354.8753967285156 140.0168762207031 367.3943481445313 C 135.4662017822266 370.7108764648438 131.1471405029297 374.3567199707031 127.1792755126953 378.2303466796875 C 123.1308746337891 382.1823425292969 119.321403503418 386.4956665039063 115.8564758300781 391.0502014160156 C 112.3283386230469 395.6879272460938 109.0490036010742 400.718994140625 106.1095352172852 406.0035400390625 C 103.1210021972656 411.3757934570313 100.3920745849609 417.1747436523438 97.99860382080078 423.2395324707031 C 95.56887054443359 429.3960571289063 93.41087341308594 436.0135192871094 91.58473968505859 442.9078063964844 C 89.73340606689453 449.8970031738281 88.16660308837891 457.3829956054688 86.92820739746094 465.1578063964844 C 85.67446899414063 473.0293884277344 84.71953582763672 481.4342041015625 84.09007263183594 490.1388549804688 C 83.45326995849609 498.9431457519531 83.13034057617188 508.317138671875 83.13034057617188 518.00048828125 C 83.13034057617188 757.788330078125 278.2122192382813 952.8698120117188 518.0003662109375 952.8698120117188 C 757.7882080078125 952.8698120117188 952.8696899414063 757.788330078125 952.8696899414063 518.00048828125 C 952.8696899414063 508.3175354003906 952.5467529296875 498.9435424804688 951.9100952148438 490.1388549804688 C 951.2805786132813 481.435546875 950.3258056640625 473.0306091308594 949.0719604492188 465.1575317382813 C 947.8331298828125 457.3814086914063 946.2664794921875 449.8953857421875 944.4154052734375 442.9074096679688 C 942.5892944335938 436.0128784179688 940.4312744140625 429.3953857421875 938.0015258789063 423.2388610839844 C 935.6077880859375 417.1737976074219 932.8790283203125 411.3746032714844 929.8904418945313 406.0024719238281 C 926.951416015625 400.7184753417969 923.6720581054688 395.6874084472656 920.1435546875 391.0490112304688 C 916.6791381835938 386.4947204589844 912.8696899414063 382.1815185546875 908.8208618164063 378.2288818359375 C 904.853271484375 374.3552551269531 900.5340576171875 370.7095336914063 895.983154296875 367.3924560546875 C 878.8065795898438 354.8734130859375 857.4505004882813 346.2070007324219 830.6944580078125 340.8980712890625 C 818.52783203125 338.4839477539063 805.3917846679688 336.773681640625 790.5361938476563 335.6691284179688 C 777.1668701171875 334.6751403808594 762.6040649414063 334.1919250488281 746.0155639648438 334.1919250488281 C 714.7860717773438 334.1919250488281 680.95556640625 335.9159240722656 645.1386108398438 337.7411193847656 C 604.3815307617188 339.8182067871094 562.2385864257813 341.9659423828125 518.0003662109375 341.9659423828125 C 473.7683410644531 341.9659423828125 431.632080078125 339.8182067871094 390.8832702636719 337.7412719726563 L 390.8770141601563 337.7408752441406 C 355.0657958984375 335.9158020019531 321.2406005859375 334.1919250488281 290.0168762207031 334.1919250488281 L 289.9847412109375 334.1919250488281 Z" stroke="none" fill="#707070"></path></g></svg> 